<?xml version="1.0" standalone="no"?>
<!DOCTYPE svg PUBLIC "-//W3C//DTD SVG 20010904//EN"
 "http://www.w3.org/TR/2001/REC-SVG-20010904/DTD/svg10.dtd">
<svg version="1.0" xmlns="http://www.w3.org/2000/svg"
 width="1920.000000pt" height="1920.000000pt" viewBox="0 0 1920.000000 1920.000000"
 preserveAspectRatio="xMidYMid meet">
<metadata>
Created by potrace 1.11, written by Peter Selinger 2001-2013
</metadata>
<g transform="translate(0.000000,1920.000000) scale(0.100000,-0.100000)"
fill="#000000" stroke="none">
<path d="M18122 18127 l-1072 -1072 0 -7453 0 -7452 -7453 0 -7452 0 -1075
-1075 -1075 -1075 9603 0 9602 0 0 9600 c0 5280 -1 9600 -3 9600 -1 0 -485
-483 -1075 -1073z"/>
<path d="M7510 14049 c-1427 -908 -2600 -1656 -2607 -1662 -9 -9 491 -332
2088 -1347 l2099 -1335 0 -1772 0 -1773 -940 0 -940 0 0 -610 0 -610 -1055 0
-1055 0 2 -893 3 -892 4495 0 4495 0 3 893 2 892 -1055 0 -1055 0 0 610 0 610
-940 0 -940 0 -2 4770 -3 4770 -2595 -1651z"/>
</g>
</svg>
